Patient4_TMGait_0pt2_01_right_11_GRF.mot
version=1
nRows=64
nColumns=19
inDegrees=no
endheader
time	F1x	F1y	F1z	M1x	M1y	M1z	F2x	F2y	F2z	M2x	M2y	M2z	EC1x	EC1y	EC1z	EC2x	EC2y	EC2z
23.52	-9.8934	806.9053	40.1231	-289.2717	-41.3575	816.7661	-10.6966	31.0462	-2.3508	12.3533	4.1645	25.8202	-0.0592	0.0182	-0.0073	-0.0462	0.0165	0.9585
23.5432	-10.6951	817.5333	41.7573	-292.7491	-42.9451	826.9894	-8.4192	25.7948	-2.0733	10.1518	3.6605	21.9136	-0.0592	0.0182	-0.0073	-0.0462	0.0165	0.9585
23.5664	-11.2624	827.6587	43.5162	-295.9086	-44.5181	836.3093	-6.2047	20.0081	-1.6643	7.7946	2.9709	17.4038	-0.0592	0.0182	-0.0073	-0.0462	0.0165	0.9585
23.5896	-11.3318	835.0729	45.2143	-297.9864	-45.8106	842.4252	-4.1648	14.4677	-1.1983	5.5827	2.1762	12.951	-0.0592	0.0182	-0.0073	-0.0462	0.0165	0.9585
23.6129	-10.6664	837.7316	46.6385	-298.2906	-46.5393	843.2409	-2.47	9.8114	-0.76621	3.7503	1.4214	9.1355	-0.0592	0.0182	-0.0073	-0.0462	0.0165	0.9585
23.6361	-9.1189	834.4394	47.5637	-296.4374	-46.4442	837.5633	-1.1997	6.2897	-0.41476	2.3815	0.79625	6.2129	-0.0592	0.0182	-0.0073	-0.0462	0.0165	0.9585
23.6593	-6.6692	825.2353	47.7845	-292.4816	-45.3367	825.4826	-0.33861	3.8688	-0.15532	1.4522	0.32805	4.1767	-0.0592	0.0182	-0.0073	-0.0462	0.0165	0.9585
23.6825	-3.4255	811.3498	47.1567	-286.8982	-43.1392	808.3183	0.1749	2.3569	0.020601	0.88022	0.0078529	2.8746	-0.0592	0.0182	-0.0073	-0.0462	0.0165	0.9585
23.7057	0.41479	794.8549	45.6312	-280.4559	-39.9032	788.2541	0.4238	1.4947	0.13258	0.55998	-0.19271	2.0919	-0.0592	0.0182	-0.0073	-0.0462	0.0165	0.9585
23.7289	4.6137	778.158	43.2823	-274.0354	-35.8142	767.8114	0.49484	1.0137	0.2036	0.38431	-0.30922	1.5974	-0.0592	0.0182	-0.0073	-0.0462	0.0165	0.9585
23.7521	8.9217	763.5117	40.3139	-268.4555	-31.1821	749.3377	0.46712	0.6673	0.25489	0.25677	-0.37651	1.1724	-0.0592	0.0182	-0.0073	-0.0462	0.0165	0.9585
23.7754	13.0928	752.6209	37.0203	-264.3326	-26.3904	734.6025	0.40825	0.25082	0.30273	0.098805	-0.42678	0.63114	-0.0592	0.0182	-0.0073	-0.0462	0.0165	0.9585
23.7986	16.9008	746.3584	33.7369	-261.9736	-21.8395	724.5156	0.37162	-0.37908	0.3593	-0.14547	-0.4872	-0.15776	-0.0592	0.0182	-0.0073	-0.0462	0.0165	0.9585
23.8218	20.1589	744.6577	30.7949	-261.3341	-17.8984	719.0452	0.39879	-1.2917	0.43224	-0.50374	-0.58357	-1.2572	-0.0592	0.0182	-0.0073	-0.0462	0.0165	0.9585
23.845	22.7664	746.6799	28.4629	-262.083	-14.8421	717.3886	0.52454	-2.4628	0.52619	-0.96698	-0.73832	-2.6328	-0.0592	0.0182	-0.0073	-0.0462	0.0165	0.9585
23.8682	24.7396	751.1187	26.9146	-263.7203	-12.8141	718.2671	0.77505	-3.7376	0.64392	-1.4756	-0.96538	-4.1046	-0.0592	0.0182	-0.0073	-0.0462	0.0165	0.9585
23.8914	26.1949	756.4982	26.2314	-265.6901	-11.8336	720.2217	1.161	-4.7882	0.77928	-1.9023	-1.259	-5.3024	-0.0592	0.0182	-0.0073	-0.0462	0.0165	0.9585
23.9146	27.3168	761.4636	26.4123	-267.4869	-11.8148	721.9028	1.6683	-5.0679	0.91208	-2.0346	-1.5861	-5.6177	-0.0592	0.0182	-0.0073	-0.0462	0.0165	0.9585
23.9379	28.3133	764.9642	27.3903	-268.7193	-12.5978	722.2577	2.2448	-3.7725	1.0022	-1.5591	-1.8755	-4.1584	-0.0592	0.0182	-0.0073	-0.0462	0.0165	0.9585
23.9611	29.3537	766.2131	29.0332	-269.0964	-13.9738	720.5139	2.7797	0.16075	0.98608	-0.058002	-2.0094	0.25537	-0.0592	0.0182	-0.0073	-0.0462	0.0165	0.9585
23.9843	30.5128	764.5313	31.1415	-268.3708	-15.7045	716.0469	3.0857	7.9988	0.77389	2.9693	-1.8107	9.0248	-0.0592	0.0182	-0.0073	-0.0462	0.0165	0.9585
24.0075	31.7411	759.1673	33.4677	-266.2749	-17.558	708.2237	2.8809	21.0605	0.25134	8.0466	-1.0392	23.5968	-0.0592	0.0182	-0.0073	-0.0462	0.0165	0.9585
24.0307	32.8605	749.1801	35.7504	-262.4758	-19.3421	696.3001	1.7786	40.4231	-0.70694	15.6081	0.59511	45.1461	-0.0592	0.0182	-0.0073	-0.0462	0.0165	0.9585
24.0539	33.5813	733.437	37.7415	-256.5737	-20.9254	679.408	-0.64133	66.5022	-2.1904	25.8358	3.351	74.1116	-0.0592	0.0182	-0.0073	-0.0462	0.0165	0.9585
24.0771	33.5847	710.9352	39.2265	-248.22	-22.2312	656.8096	-4.4339	98.7809	-4.2729	38.5408	7.326	109.889	-0.0592	0.0182	-0.0073	-0.0462	0.0165	0.9585
24.1004	32.6418	681.2972	40.0535	-237.2961	-23.2236	628.2988	-9.0711	135.6745	-7.0597	53.0934	12.4106	150.6692	-0.0592	0.0182	-0.0073	-0.0462	0.0165	0.9585
24.1236	30.7118	645.1976	40.1205	-224.0688	-23.8593	594.5476	-13.8252	174.6866	-10.5342	68.4958	18.268	193.6371	-0.0592	0.0182	-0.0073	-0.0462	0.0165	0.9585
24.1468	27.9941	604.5901	39.3824	-209.2649	-24.0642	557.286	-18.1053	213.483	-14.3867	83.8257	24.3034	236.19	-0.0592	0.0182	-0.0073	-0.0462	0.0165	0.9585
24.17	24.8913	562.3131	37.9071	-193.9183	-23.7815	518.9419	-21.5609	250.5455	-18.1467	98.4933	29.8596	276.6538	-0.0592	0.0182	-0.0073	-0.0462	0.0165	0.9585
24.1932	21.8694	521.3374	35.8884	-179.0935	-23.0255	482.0019	-24.0643	284.8885	-21.427	112.1125	34.4697	313.9697	-0.0592	0.0182	-0.0073	-0.0462	0.0165	0.9585
24.2164	19.2869	484.0809	33.6105	-165.643	-21.9131	448.4597	-25.6383	315.6437	-24.0255	124.3283	37.9294	347.2307	-0.0592	0.0182	-0.0073	-0.0462	0.0165	0.9585
24.2396	17.3194	452.0072	31.3761	-154.0728	-20.6377	419.4918	-26.3954	341.9561	-25.8624	134.783	40.2052	375.5524	-0.0592	0.0182	-0.0073	-0.0462	0.0165	0.9585
24.2629	16.0029	425.5917	29.4327	-144.5387	-19.3962	395.4401	-26.5002	363.23	-26.9012	143.2257	41.3347	398.325	-0.0592	0.0182	-0.0073	-0.0462	0.0165	0.9585
24.2861	15.3101	404.538	27.9318	-136.9258	-18.3295	376.0003	-26.1162	379.4385	-27.1545	149.6382	41.409	415.5255	-0.0592	0.0182	-0.0073	-0.0462	0.0165	0.9585
24.3093	15.202	388.0889	26.9191	-130.9633	-17.4945	360.4928	-25.3689	391.2093	-26.742	154.2665	40.6185	427.8048	-0.0592	0.0182	-0.0073	-0.0462	0.0165	0.9585
24.3325	15.637	375.2727	26.3618	-126.3107	-16.8789	348.0711	-24.3471	399.6905	-25.8812	157.5654	39.2414	436.3464	-0.0592	0.0182	-0.0073	-0.0462	0.0165	0.9585
24.3557	16.5566	364.9907	26.181	-122.5895	-16.4366	337.7979	-23.1049	406.2601	-24.8218	160.0836	37.5769	442.5536	-0.0592	0.0182	-0.0073	-0.0462	0.0165	0.9585
24.3789	17.8683	356.0494	26.2559	-119.3935	-16.0996	328.6618	-21.6562	412.2187	-23.784	162.3417	35.8756	447.7386	-0.0592	0.0182	-0.0073	-0.0462	0.0165	0.9585
24.4021	19.4306	347.1982	26.425	-116.3008	-15.7814	319.601	-20.0006	418.6186	-22.9234	164.7663	34.3091	452.9671	-0.0592	0.0182	-0.0073	-0.0462	0.0165	0.9585
24.4254	21.0542	337.183	26.5028	-112.89	-15.3877	309.5476	-18.1526	426.3195	-22.3458	167.7065	32.9966	459.1289	-0.0592	0.0182	-0.0073	-0.0462	0.0165	0.9585
24.4486	22.518	324.842	26.311	-108.7692	-14.837	297.5088	-16.1542	436.1376	-22.1352	171.4899	32.0369	467.0958	-0.0592	0.0182	-0.0073	-0.0462	0.0165	0.9585
24.4718	23.5953	309.255	25.7113	-103.623	-14.0812	282.6985	-14.0932	448.9273	-22.3605	176.453	31.5267	477.8178	-0.0592	0.0182	-0.0073	-0.0462	0.0165	0.9585
24.495	24.0736	289.8885	24.6212	-97.2584	-13.1137	264.6654	-12.1229	465.5076	-23.0737	182.9141	31.5665	492.2504	-0.0592	0.0182	-0.0073	-0.0462	0.0165	0.9585
24.5182	23.769	266.7054	23.0256	-89.6419	-11.9735	243.3839	-10.4125	486.4936	-24.3017	191.1134	32.232	511.1487	-0.0592	0.0182	-0.0073	-0.0462	0.0165	0.9585
24.5414	22.5651	240.2626	20.9862	-80.9363	-10.7413	219.3426	-9.0795	512.2101	-26.0225	201.1838	33.5305	534.9343	-0.0592	0.0182	-0.0073	-0.0462	0.0165	0.9585
24.5646	20.4552	211.7263	18.6335	-71.5089	-9.5218	193.561	-8.185	542.5577	-28.1561	213.0965	35.3923	563.5599	-0.0592	0.0182	-0.0073	-0.0462	0.0165	0.9585
24.5879	17.563	182.7086	16.1417	-61.8822	-8.4208	167.4397	-7.7692	576.8045	-30.5734	226.5745	37.6904	596.3227	-0.0592	0.0182	-0.0073	-0.0462	0.0165	0.9585
24.6111	14.1364	154.8974	13.7109	-52.612	-7.5285	142.4312	-7.8494	613.5131	-33.1117	241.0564	40.256	631.7941	-0.0592	0.0182	-0.0073	-0.0462	0.0165	0.9585
24.6343	10.4806	129.5358	11.5231	-44.1139	-6.9005	119.5876	-8.403	650.7187	-35.6085	255.7595	42.9069	667.9942	-0.0592	0.0182	-0.0073	-0.0462	0.0165	0.9585
24.6575	6.8606	107.0804	9.6773	-36.5485	-6.5337	99.2737	-9.362	686.4434	-37.929	269.8847	45.4732	702.9128	-0.0592	0.0182	-0.0073	-0.0462	0.0165	0.9585
24.6807	3.4755	87.3125	8.168	-29.8559	-6.3585	81.2823	-10.6134	719.274	-39.9686	282.8518	47.8005	735.093	-0.0592	0.0182	-0.0073	-0.0462	0.0165	0.9585
24.7039	0.4869	69.7423	6.9088	-23.8841	-6.2495	65.1853	-12.0152	748.5401	-41.6531	294.3758	49.757	763.8076	-0.0592	0.0182	-0.0073	-0.0462	0.0165	0.9585
24.7271	-1.9322	53.9658	5.7798	-18.5055	-6.0465	50.6407	-13.4142	774.062	-42.9501	304.3704	51.2546	788.807	-0.0592	0.0182	-0.0073	-0.0462	0.0165	0.9585
24.7504	-3.5897	39.8373	4.6734	-13.6786	-5.5912	37.5467	-14.6488	795.7011	-43.8903	312.7698	52.2689	809.8716	-0.0592	0.0182	-0.0073	-0.0462	0.0165	0.9585
24.7736	-4.3202	27.4994	3.5386	-9.459	-4.7861	26.0677	-15.5676	812.9865	-44.5567	319.3812	52.8338	826.4526	-0.0592	0.0182	-0.0073	-0.0462	0.0165	0.9585
24.7968	-4.1577	17.2871	2.4177	-5.9637	-3.6879	16.5332	-16.0399	825.0837	-45.0487	323.8758	53.0119	837.646	-0.0592	0.0182	-0.0073	-0.0462	0.0165	0.9585
24.82	-3.4654	9.4649	1.4303	-3.2819	-2.5354	9.2004	-15.9546	831.1648	-45.4394	325.9408	52.8501	842.5556	-0.0592	0.0182	-0.0073	-0.0462	0.0165	0.9585
24.8432	-2.5963	3.8793	0.64712	-1.3602	-1.5145	3.9313	-15.24	831.0057	-45.735	325.5163	52.346	840.8869	-0.0592	0.0182	-0.0073	-0.0462	0.0165	0.9585
24.8664	-1.7637	0.066055	0.073404	-0.039878	-0.69975	0.28543	-13.8909	825.3	-45.871	322.9156	51.4496	833.2675	-0.0592	0.0182	-0.0073	-0.0462	0.0165	0.9585
24.8896	-1.0705	-2.5357	-0.31867	0.87315	-0.097335	-2.2727	-11.9678	815.5262	-45.7357	318.7678	50.0853	821.1213	-0.0592	0.0182	-0.0073	-0.0462	0.0165	0.9585
24.9129	-0.53914	-4.4391	-0.57168	1.5577	0.32635	-4.2294	-9.5673	803.6282	-45.2223	313.8808	48.196	806.348	-0.0592	0.0182	-0.0073	-0.0462	0.0165	0.9585
24.9361	-0.13902	-6.0189	-0.72894	2.1421	0.62245	-5.934	-6.7934	791.5727	-44.2736	309.0585	45.7737	790.8893	-0.0592	0.0182	-0.0073	-0.0462	0.0165	0.9585
24.9593	0.19245	-7.4385	-0.82097	2.6782	0.83924	-7.5245	-3.7384	780.8632	-42.9022	304.9058	42.8702	776.2569	-0.0592	0.0182	-0.0073	-0.0462	0.0165	0.9585
24.9825	0.53323	-8.5948	-0.8588	3.1198	1.0112	-8.8629	-0.46107	772.188	-41.1879	301.6891	39.5829	763.1843	-0.0592	0.0182	-0.0073	-0.0462	0.0165	0.9585
